<?xml version="1.0" standalone="no"?>
<!DOCTYPE svg PUBLIC "-//W3C//DTD SVG 20010904//EN"
 "http://www.w3.org/TR/2001/REC-SVG-20010904/DTD/svg10.dtd">
<svg version="1.0" xmlns="http://www.w3.org/2000/svg"
 width="709.000000pt" height="571.000000pt" viewBox="0 0 709.000000 571.000000"
 preserveAspectRatio="xMidYMid meet">

<g transform="translate(0.000000,571.000000) scale(0.100000,-0.100000)"
fill="#f4f4f5" stroke="none">
<path d="M3500 5697 c-18 -9 -39 -46 -82 -147 -31 -74 -65 -161 -75 -192 -10
-32 -20 -58 -23 -57 -3 0 -30 39 -62 87 -82 127 -176 250 -204 269 -22 14 -34
14 -102 3 -117 -19 -125 -25 -157 -127 -15 -48 -41 -144 -59 -214 l-32 -127
-20 29 c-48 67 -261 290 -283 296 -22 5 -147 -31 -246 -73 -39 -16 -39 -16
-18 -33 174 -136 269 -217 378 -323 l131 -126 98 26 99 27 38 150 c21 83 49
183 62 223 l24 74 50 -64 c50 -64 145 -197 197 -277 l28 -44 51 7 c29 3 73 6
99 6 l47 0 100 198 c56 108 130 244 166 301 36 57 65 107 65 112 0 14 -241 11
-270 -4z"/>
<path d="M4180 5612 c-305 -80 -317 -354 -24 -518 72 -40 171 -76 293 -106
118 -30 310 -31 395 -4 203 67 250 253 104 412 -161 176 -527 279 -768 216z
m381 -136 c119 -37 211 -111 224 -180 13 -69 -30 -146 -99 -177 -117 -53 -383
14 -457 115 -16 21 -24 49 -27 88 -7 89 37 144 133 169 41 11 170 2 226 -15z"/>
<path d="M1822 5294 c-59 -30 -114 -63 -123 -72 -14 -14 -51 -141 -83 -285 -5
-21 -11 -27 -24 -23 -9 3 -79 12 -155 21 -107 12 -142 13 -160 4 -27 -15 -162
-127 -199 -166 l-27 -28 219 -1 c121 0 222 -3 226 -6 3 -4 -1 -69 -10 -146 -9
-76 -16 -176 -16 -221 l0 -81 90 77 c100 87 92 68 110 258 7 66 15 125 18 132
5 8 49 1 161 -28 l155 -39 113 57 c61 32 109 61 105 64 -12 11 -195 69 -313
98 -106 27 -114 31 -111 52 4 26 88 249 125 332 14 31 22 57 16 57 -5 0 -57
-25 -117 -56z"/>
<path d="M5242 4994 c-85 -146 -152 -267 -150 -268 17 -13 182 -106 188 -106
5 0 37 40 70 90 l62 90 43 -30 c49 -33 50 -37 64 -208 6 -62 16 -121 23 -131
18 -25 171 -160 182 -161 10 0 -3 271 -14 309 -4 14 -11 34 -15 43 -6 15 -1
15 46 -3 138 -53 252 -6 252 103 0 132 -177 304 -510 496 -39 23 -75 42 -80
42 -4 -1 -77 -120 -161 -266z m441 -43 c118 -88 116 -190 -2 -179 -39 4 -68
17 -130 58 -49 31 -78 57 -74 64 3 6 26 39 51 74 l44 62 31 -22 c18 -12 54
-37 80 -57z"/>
<path d="M6138 4318 c-117 -99 -224 -191 -236 -203 l-24 -22 52 -64 c69 -86
176 -245 235 -349 27 -47 50 -87 51 -88 5 -7 94 50 94 60 0 15 -82 157 -142
245 -26 40 -48 76 -48 80 1 4 91 73 200 153 110 79 200 147 200 151 0 8 -96
135 -141 186 l-28 33 -213 -182z"/>
<path d="M873 4461 c-137 -47 -282 -220 -450 -538 l-54 -101 83 -45 c174 -94
447 -237 457 -239 9 -3 121 185 121 203 0 4 -34 28 -75 54 -41 25 -77 51 -81
56 -3 5 26 59 65 119 152 232 185 366 114 451 -28 32 -78 59 -110 59 -10 -1
-41 -9 -70 -19z m6 -237 c26 -33 26 -67 2 -119 -22 -48 -109 -185 -118 -185
-9 0 -153 91 -153 96 0 9 91 148 114 173 57 64 121 78 155 35z"/>
<path d="M3300 4464 c-131 -16 -333 -61 -461 -104 -769 -253 -1337 -902 -1496
-1707 -25 -130 -27 -154 -27 -413 0 -259 2 -283 27 -413 179 -910 874 -1605
1784 -1784 130 -25 154 -27 413 -27 259 0 283 2 413 27 910 179 1605 875 1784
1784 25 129 27 156 27 408 1 218 -3 288 -17 365 -71 379 -204 688 -420 980
-91 122 -325 356 -447 447 -288 213 -589 344 -955 414 -89 18 -155 22 -350 24
-132 2 -256 1 -275 -1z m328 -440 c110 -134 198 -272 288 -449 73 -146 167
-376 181 -446 l6 -29 -562 0 c-495 0 -561 2 -561 15 0 35 97 282 170 431 109
224 356 583 393 571 7 -2 45 -44 85 -93z m562 -11 c293 -109 573 -301 772
-532 91 -104 189 -245 234 -333 l24 -48 -377 0 -378 0 -37 123 c-69 234 -186
496 -316 710 -40 65 -72 121 -72 124 0 8 47 -6 150 -44z m7 -1338 c36 -252 37
-580 2 -856 l-12 -89 -647 0 -647 0 -12 88 c-21 170 -33 389 -26 522 6 138 32
398 41 412 3 5 294 7 647 6 l642 -3 12 -80z m1182 -2 c70 -301 66 -621 -10
-905 l-10 -38 -412 0 -413 0 14 98 c20 135 20 689 0 825 -7 54 -12 100 -9 102
2 3 188 5 412 5 l407 0 21 -87z m-1279 -1308 c0 -8 -21 -73 -46 -143 -66 -185
-188 -427 -293 -583 -93 -139 -204 -279 -221 -279 -17 0 -128 140 -221 279
-105 156 -227 398 -293 583 -25 70 -46 135 -46 143 0 13 66 15 560 15 494 0
560 -2 560 -15z m1096 -32 c-45 -89 -143 -230 -234 -334 -158 -184 -347 -329
-572 -442 -136 -68 -335 -146 -346 -135 -2 3 28 59 68 124 130 215 246 477
316 711 l37 123 378 0 377 0 -24 -47z"/>
<path d="M6604 3482 l-282 -125 25 -66 c37 -96 70 -200 103 -332 66 -260 145
-433 239 -522 199 -190 391 6 391 398 0 114 -18 232 -56 374 -30 108 -122 383
-132 393 -4 3 -134 -50 -288 -120z m289 -224 c2 -13 17 -70 32 -128 51 -194
36 -341 -40 -409 -90 -78 -197 -35 -270 109 -24 47 -102 317 -94 324 5 4 352
125 360 125 4 1 9 -9 12 -21z"/>
<path d="M217 3453 c-4 -7 -55 -170 -73 -234 -3 -12 31 -26 173 -69 98 -30
180 -55 182 -57 2 -1 -50 -58 -115 -125 -125 -129 -221 -244 -305 -366 -56
-80 -68 -130 -69 -268 l0 -72 83 -6 c45 -3 182 -9 303 -12 l222 -7 7 99 c3 55
7 112 8 128 l2 30 -184 22 c-101 13 -185 25 -187 27 -12 12 159 213 308 360
l169 167 29 84 28 85 -280 110 c-154 61 -284 111 -288 111 -5 0 -11 -3 -13 -7z"/>
</g>
</svg>
